<?xml version="1.0" encoding="UTF-8" standalone="no"?>
<!-- Created with Inkscape (http://www.inkscape.org/) -->

<svg
   xmlns:dc="http://purl.org/dc/elements/1.1/"
   xmlns:cc="http://creativecommons.org/ns#"
   xmlns:rdf="http://www.w3.org/1999/02/22-rdf-syntax-ns#"
   xmlns:svg="http://www.w3.org/2000/svg"
   xmlns="http://www.w3.org/2000/svg"
   xmlns:sodipodi="http://sodipodi.sourceforge.net/DTD/sodipodi-0.dtd"
   xmlns:inkscape="http://www.inkscape.org/namespaces/inkscape"
   width="210mm"
   height="297mm"
   viewBox="0 0 793.700787402 1122.51968504"
   version="1.1"
   id="svg"
   inkscape:version="0.92.4 (unknown)"
   sodipodi:docname="bne-layout.svg">
  <defs
     id="defs10" />
  <sodipodi:namedview
     id="base"
     pagecolor="#cbccd2"
     bordercolor="#666666"
     borderopacity="1.0"
     inkscape:pageopacity="0"
     inkscape:pageshadow="2"
     inkscape:zoom="1"
     inkscape:cx="396.850393701"
     inkscape:cy="561.25984252"
     inkscape:document-units="mm"
     inkscape:current-layer="svg"
     showgrid="false"
     units="mm"
     inkscape:window-width="1280"
     inkscape:window-height="648"
     inkscape:window-x="0"
     inkscape:window-y="36"
     inkscape:window-maximized="1"
     inkscape:showpageshadow="false"
     borderlayer="true">
    <inkscape:grid
       type="xygrid"
       id="pixels"
       spacingx="0.25"
       spacingy="0.25"
       empspacing="4"
       empcolor="#666666"
       empopacity="0.15"
       color="#666666"
       opacity="0.05" />
  </sodipodi:namedview>
  <metadata
     id="metadata3728">
    <rdf:RDF>
      <cc:Work
         rdf:about="">
        <dc:title></dc:title>
        <dc:format>image/svg+xml</dc:format>
        <dc:type
           rdf:resource="http://purl.org/dc/dcmitype/StillImage" />
      </cc:Work>
    </rdf:RDF>
  </metadata>
  <rect
     id="rect3328"
     width="569.928039551"
     height="582.656005859"
     x="111.886375427"
     y="269.931854248"
     style="fill:#ee0000;stroke:none" />
  <g
     id="g3326"
     transform="translate(45.4258651788,205.045835695)"
     style="stroke:#ffffff">
    <g
       transform="translate(238.090222707,245.043030348)"
       id="g1109"
       style="fill:none;stroke:#ffffff;stroke-width:1.5;stroke-linecap:round;stroke-linejoin:round;stroke-miterlimit:5">
      <path
         sodipodi:nodetypes="cscccscsccsscccccc"
         inkscape:connector-curvature="0"
         d="m 19.1710641898,9.1073811435 c 1.0313515733,6.4010020709 6.1321515171,10.4449305916 3.0774807405,11.046847906 -1.6516098178,0.3254435801 -3.4968960879,-3.5403367539 -6.7494041104,-2.9823982468 -2.0154342813,0.371750869 -1.0235630026,4.1069287081 -1.9994669616,5.2423947963 C 4.24975029672,15.426574987 3.62742053129,32.2578754829 4.5,31.5 4.409157337,28.6853128735 7.80809510292,20.8787978641 10.8612083896,24.4570167684 c 3.2289832403,3.7843275496 8.2492895715,-1.2728894851 6.101508569,-3.3013184995 -1.5967547276,-1.2753765613 2.6837949323,3.0214477389 6.0612509717,2.4772603505 C 31.3175790496,22.296663336 23.2931115601,13.7496163814 22.5,9 22.2371239087,7.0515713154 25.8259805664,7.30101041381 26.9592465927,7.45124529291 28.5010968319,7.59970332941 27.6607032195,9.62681268318 30,9 34.5,7.79422863406 34.5,5.33405623284 30,4.5 28.106052725,4.14896477124 27.7758599261,5.33554945854 27,5.00000000106 23.3163862278,3.73087526877 18.6482169633,5.01686075248 19.1710641898,9.1073811435 Z M 29.979200115,7.57101322551 c 0.015704883,-0.013621924 0.035467626,0.00325773 0.04868874,-0.014698181 M 29.969822319,5.5026702611 c 0.019188643,0.007999758 0.03264946,-0.0142329893 0.050836913,-0.001337736"
         id="path1034-9"
         style="stroke-width:1.5;stroke:#ffffff" />
    </g>
    <g
       transform="translate(427.926450503,245.288704886)"
       id="g1122"
       style="fill:none;stroke:#ffffff;stroke-width:1.5;stroke-linecap:round;stroke-linejoin:round;stroke-miterlimit:5">
      <path
         sodipodi:nodetypes="cccssssccccccccccccssssccssssssccssccccc"
         inkscape:connector-curvature="0"
         d="M 14.8221943544,6.11179276933 H 21.265044986 M 7.58380802227,28.8410449908 c 0.92729543693,-0.3378231944 1.84497701515,-0.7187433377 2.84763779663,-0.7187433377 1.8015047952,0 3.3286911918,1.2296999316 5.1301959869,1.2296999316 1.8015047951,0 3.3286961294,-1.2296999316 5.1302009245,-1.2296999316 1.8015047952,0 3.3286961294,1.2296999316 5.1302009245,1.2296999316 0.9677161086,0 1.8562795949,-0.3548338484 2.7507289157,-0.6832851353 M 25.6222610537,20.7181244013 25.4043419845,16.5 H 10.3134526148 v 3.5725244071 M 8.63108165113,20.330365432 7.45326791776,15.8727149078 C 7.13020374943,14.6812235224 7.05069560695,13.3918280416 8.6245785941,13.5 h 18.0055575374 c 1.4562354276,0 2.080790601,0.5152354313 1.6616322853,2.130442704 l -1.2530358822,5.0876816962 M 5.3012448944,25.3438964778 c 1.80150479516,0 3.32869612941,-1.2296999315 5.1302009245,-1.2296999315 1.8015047952,0 3.3286911918,1.2296999315 5.1301959869,1.2296999315 1.8015047951,0 3.3286961294,-1.2296999315 5.1302009245,-1.2296999315 1.8015047952,0 3.3286961294,1.2296999315 5.1302009245,1.2296999315 1.8015047953,0 3.3286961295,-1.2296999315 5.1302009246,-1.2296999315 M 3.73964216746,21.2215953198 c 0.56540056236,0.1152823627 1.11122282481,0.192138917 1.56160272694,0.192138917 1.80150479516,0 3.32869612941,-1.2296999315 5.1302009245,-1.2296999315 1.8015047952,0 3.3286911918,1.2296999315 5.1301959869,1.2296999315 1.8015047951,0 3.3286961294,-1.2296999315 5.1302009245,-1.2296999315 1.8015047952,0 3.3286961294,1.2296999315 5.1302009245,1.2296999315 1.8015047953,0 3.3286961295,-1.2296999315 5.1302009246,-1.2296999315 0.4503749645,0 0.8836059547,0.076856555 1.3082698957,0.192138917 M 26.4329557406,13.5 C 25.4938392571,10.3084768957 25.5254657415,9.5435386331 23.7896235521,9.5435386331 H 11.9885255389 c -1.7358471271,0 -1.7042157049,0.7649382626 -2.64333218848,3.9564613669 M 16.1288495958,9.45646136685 17.0861371119,6.2707078298 h 1.6564278646 l 0.957287516,3.18575353705"
         id="path6882-7"
         style="stroke-width:1.5;stroke:#ffffff" />
    </g>
    <g
       transform="translate(144.362358467,245.765193533)"
       id="g1135"
       style="fill:none;stroke:#ffffff;stroke-width:1.5;stroke-linecap:round;stroke-linejoin:round;stroke-miterlimit:5">
      <path
         id="path7614-9"
         d="m 25.5,22.49745459 h -15 M 10.4661696965,31.5 H 3.34340586562 m 29.31318826878,0 H 25.5 m 7.1565941344,-3 H 25.5 10.5 3.34340586562 M 32.6565941344,25 H 25.5 m -15,0 H 3.34340586562 M 10.5,21.7337379126 H 3.34340586562 m 29.31318826878,0 H 25.5 M 20.6047898154,9.75000000007 c 0,1.43572759933 -1.1662042875,2.59961478243 -2.6047901845,2.59961478243 -1.4385858911,0 -2.6047901786,-1.1638871826 -2.6047901786,-2.59961478243 0,-1.43572759897 1.1662042875,-2.59961478257 2.6047901786,-2.59961478257 1.438585897,0 2.6047901845,1.16388718413 2.6047901845,2.59961478257 z M 15,13.5 v -6 L 18,3 21,7.5 v 6 m -7.5,4.4824805497 V 13.5 h 9 v 4.4824805497 M 18.0000000022,16.5 27,19.5 H 9 Z M 4.5,28.5 V 25 m 27,0 v 3.5 m -24,0 V 25 m 21,0 v 3.5 m -12,0 v -5.9200787856 m 3,0 V 28.5 m -6,0 v -5.9200787856 m 9,0 V 28.5 M 10.4661696965,31.5 10.5,19.5 m 15,0 v 12"
         inkscape:connector-curvature="0"
         sodipodi:nodetypes="ccccccccccccccccccsssssccccccccccccccccccccccccccccccccc"
         style="stroke-width:1.5;stroke:#ffffff" />
    </g>
    <g
       transform="translate(238.133722479,522.340493525)"
       id="g1148"
       style="fill:none;stroke:#ffffff;stroke-width:1.5;stroke-linecap:round;stroke-linejoin:round;stroke-miterlimit:5">
      <path
         id="path4948"
         d="m 22.3239030891,13.5 c 2.872079411,-2.872079411 -2.5908651726,-4.01297076454 0,-6.60382763563 M 16.5505290241,13.5 c 2.8720752602,-2.872079411 -2.5908651727,-4.01297076454 0,-6.60382763563 M 25.5,16.4520732073 30,16.5 c 0,2.2350949173 -1.9269146737,4.7911972582 -4.4367154319,4.7911972582 M 10.5884580832,13.5 c 2.872079411,-2.872079411 -2.5908651726,-4.01297076454 0,-6.60382763563 M 11.5,31 h 10 m 4,-12.4385118573 C 25.5,22.1305347332 24.011544079,26.7154538756 21.5,28.5 h -10 c -2.5115855866,-1.7845336721 -4,-6.3079646718 -4,-9.8770237145 V 16.5 l 18,-0.061488143 z"
         inkscape:connector-curvature="0"
         style="stroke-width:1.5;stroke:#ffffff"
         sodipodi:nodetypes="cccccccccccccccccc" />
    </g>
    <g
       transform="translate(144.359543566,430.239443655)"
       id="g1161"
       style="fill:none;stroke:#ffffff;stroke-width:1.5;stroke-linecap:round;stroke-linejoin:round;stroke-miterlimit:5">
      <path
         id="path4043"
         d="M 26.330495828,6.62326520108 C 25.1759650117,6.51642959912 24,7.5 22.5,7.5 m 1.2285917603,-2.29501783031 c 0.9874964333,1.4657057125 -0.6803312353,5.14299121431 0.623717612,7.72719935091 M 21.5328541501,8.77514411793 c -3.9104045846,-3.61985399176 -6.4332915179,11.31181624557 0.2475515362,1.20954027357 -0.05540393,-1.05431250664 -1.1079334492,0.2657006198 -0.2936166384,2.7029654888 M 15.7756357488,5.40060748196 C 6.22264325371,3.59463486815 14.1033080229,10.7543571108 14.2809877026,9.13909438468 9.67142906254,6.79912559642 6.57209931217,22.4603632996 19.3738912011,8.57951832336 M 7.71636925671,16.5 4.50562980152,19.9180174815 v 9.5706226769 L 7.71636925671,31.5 Z m 0,0 v 15 z M 13.5,19.6044976089 17.6333475234,22.5 m -9.91697826669,-6 H 31.5 v 15 H 7.71636925671 Z m 0,0 v 15 z M 25.4,22.5 v 5.8620604641 H 13.5 v -8.7575628552 h 11.9 m 0,0 L 28.3909007347,22.5 H 17.4916783075"
         inkscape:connector-curvature="0"
         style="stroke-width:1.5;stroke:#ffffff"
         sodipodi:nodetypes="cccccccccccccccccccccccccccccccccccc" />
    </g>
    <g
       transform="translate(427.926450503,152.515809544)"
       id="g1190"
       style="fill:none;stroke:#ffffff;stroke-width:1.5;stroke-linecap:round;stroke-linejoin:round;stroke-miterlimit:5">
      <path
         sodipodi:nodetypes="ccccccccsccssscssssscccccccccccccccccscc"
         inkscape:connector-curvature="0"
         d="M 24.846850947,32.5 17.988392895,16.5422723072 11.2631538228,32.5 H 7.82686498655 L 17.988392895,16.5422723072 28.2831350135,32.5 Z m -3.5487171641,-8.1337290587 c -1.0152359355,0.4242386807 -2.129364435,0.6585279318 -3.2981311596,0.6585279318 -1.1563890557,0 -2.2592894119,-0.2293514725 -3.2658347453,-0.6451076696 m -1.4501285417,-0.7699022739 c -2.3229807449,-1.5357827627 -3.85565569638,-4.1736252561 -3.85565569638,-7.1700029628 0,-4.7413743924 3.83764487678,-8.58501767706 8.57161898338,-8.58501767706 4.733974107,0 8.5716142138,3.84364328466 8.5716142138,8.58501767706 0,2.9887348841 -1.524866765,5.6207665421 -3.8378976768,7.1582286268 m -1.9876925611,-7.158227264 c 0,1.5189525505 -1.2294390282,2.7503099948 -2.746023976,2.7503099948 -1.5165924422,0 -2.7460239754,-1.2313574443 -2.7460239754,-2.7503099948 0,-1.518960047 1.2294315332,-2.7503174911 2.7460239754,-2.7503174911 1.5165849478,0 2.746023976,1.2313574441 2.746023976,2.7503174911 z m 2.1028501922,11.7273041894 c -0.7425927771,0.3083434456 -1.5208078788,0.5479948116 -2.3267445734,0.7110400065 m -4.6747011777,0.069038997 C 14.9560058325,28.7943669984 14.0963711206,28.5482904493 13.2788974761,28.2193270157 M 11.1006519823,27.0848974026 C 10.7073581386,26.8286720333 10.3291485401,26.5511755372 9.96764914609,26.2540363895 M 7.63204266584,23.7354523307 C 6.88643269783,22.674497117 6.29905413185,21.4939469137 5.90426851588,20.2282164389 M 5.36412465868,15.5015661211 C 5.46865294926,14.0690201506 5.81062427317,12.7025045135 6.35079172204,11.4413273686 M 9.53561249666,6.99714260964 C 11.0190765595,5.6623210904 12.8188117629,4.6731002451 14.8084969595,4.15599836303 m 6.2111068075,-0.0433836774 c 1.9873763364,0.48666640632 3.7908654713,1.44286782434 5.2866148118,2.74455807221 m 3.4523924029,4.84778251186 c 0.4805236818,1.1959584329 0.7844328711,2.4821208306 0.8793812219,3.8260902877 m -0.6002366103,4.8782380135 c -0.3665030107,1.1155682275 -0.8832829189,2.162803742 -1.5263498102,3.1176789744 m -2.4088213986,2.6689245638 c -0.3592891063,0.2996561947 -0.7353910587,0.5797789974 -1.1266803671,0.8387403666"
         id="path1111-2"
         style="stroke-width:1.5;stroke:#ffffff" />
      <circle
         id="path1533"
         cx="18"
         cy="4.5"
         r="1.5"
         style="stroke-width:1.5;stroke:#ffffff" />
      <circle
         style="stroke-width:1.5;stroke:#ffffff"
         r="1.5"
         cy="9"
         cx="28.5"
         id="circle1535" />
      <circle
         id="circle1537"
         cx="7.5"
         cy="9"
         r="1.5"
         style="stroke-width:1.5;stroke:#ffffff" />
      <circle
         style="stroke-width:1.5;stroke:#ffffff"
         r="1.5"
         cy="18"
         cx="4.5"
         id="circle1539" />
      <circle
         id="circle1541"
         cx="31.5"
         cy="18"
         r="1.5"
         style="stroke-width:1.5;stroke:#ffffff" />
      <circle
         id="circle1543"
         cx="7.5"
         cy="26.5"
         r="1.5"
         style="stroke-width:1.5;stroke:#ffffff" />
      <circle
         style="stroke-width:1.5;stroke:#ffffff"
         r="1.5"
         cy="26.5"
         cx="28.5"
         id="circle1545" />
      <circle
         id="circle1547"
         cx="18"
         cy="30"
         r="1.5"
         style="stroke-width:1.5;stroke:#ffffff" />
    </g>
    <g
       transform="translate(239.25007733,337.781777899)"
       id="g1203"
       style="fill:none;stroke:#ffffff;stroke-width:1.5;stroke-linecap:round;stroke-linejoin:round;stroke-miterlimit:5">
      <path
         inkscape:connector-curvature="0"
         id="path1763-8"
         style="stroke-width:1.5;stroke:#ffffff"
         d="M 9.82464591417,10.1521648896 C 14.1170097158,6.91002330702 15.827071169,8.740957695 18.5185707552,8.74179946114 17.9965064828,10.4386161415 18.7197723915,12.7931699095 17.342299985,14.92937951 M 17.8080785623,9.15200231987 19.1251576901,7.97140093903 M 17.3051197379,15.2084529284 C 13.0641986966,17.0028745967 8.03745933872,25.1894907841 4.49999999998,21.795559677 2.38085787512,19.7623722121 4.27998273484,17.8356961649 10.6929308576,8.61387643889 14.4743157868,3.17626383997 20.2954975209,3.62620867852 22.1405674744,5.46501532356 c 2.7931758413,2.78359401566 0.4760445598,7.49600251324 -4.8354477365,9.74343760484 z m 2.791639804,13.7788812059 c 6.0348373828,-3.4309666055 3.9275069784,-5.2285823689 4.8651065515,-6.8236040527 -2.2031433831,-0.814495015 -7.6117779273,0.082522331 -8.2652884013,3.0716505825 m 8.2652884013,-3.0716505825 2.2724592129,2.9846769707 m -7.2046710173,-0.013505487 c -4.023790702,1.3132115008 -15.35544227342,1.017206556 -14.46863366964,3.2730536472 0.53125027748,1.35133273 4.64429024004,1.0297901369 16.37542746994,0.5883653474 6.917260473,-0.2602832557 9.9130876171,-2.7540078493 9.391086552,-3.9468762008 C 30.537293499,23.2436423059 25.069191145,23.49023914 20.029654289,25.1349015653 Z M 5.56102061936,28.9834138812 c 0,2.6693390018 1.58671695774,3.1676893102 17.69855161064,2.5613941907 6.9172561648,-0.2602832559 8.9685306719,-3.1557045372 8.1917605529,-6.0431991531" />
    </g>
    <g
       transform="translate(144.36609153,337.775319582)"
       id="g1216"
       style="fill:none;stroke:#ffffff;stroke-width:1.5;stroke-linecap:round;stroke-linejoin:round;stroke-miterlimit:5">
      <path
         id="path5392"
         d="M 31.5,9.00000000004 V 28.2124815207 M 27.5,6.89554321736 V 29.5810407592 M 22.5,5.31358412386 V 30.6337817619 M 13.5,5.36621823838 V 30.6864158763 M 8.5,5.93747045523 V 29.5810407592 M 5,8.47363175687 V 27.6861132775 M 32,12 c 0,2.4234207344 -6.2602941632,4.5 -13.9999999998,4.5 C 10.2602941635,16.5 4,14.4234207344 4,12 c -4e-11,-2.42342073442 6.2602941635,-4.50000000004 14.0000000002,-4.5 C 25.7397058368,7.5 32,9.57657926561 32,12 Z m -2.666478574,8.2633175989 c 4.2712391392,1.8388709562 3.3487373712,4.3947400516 -2.1254556591,5.8887544947 C 21.7338727366,27.6460865367 13.5216533407,27.583261672 8.2870091426,26.0073228164 3.05236494448,24.4313839608 2.52959547945,21.8644582965 7.08254172977,20.0930938481"
         inkscape:connector-curvature="0"
         style="stroke-width:1.5;stroke:#ffffff"
         sodipodi:nodetypes="ccccccccccccssssscssc" />
    </g>
    <g
       transform="translate(522.427527865,338.0252786)"
       id="g1229"
       style="fill:none;stroke:#ffffff;stroke-width:1.5;stroke-linecap:round;stroke-linejoin:round;stroke-miterlimit:5">
      <path
         id="rect1633-2"
         d="m 16.1998461828,22 v -3.5 h 3.5706422223 V 22 M 23.5,18.5858714174 C 23.5,17.4411134734 22.54203767,16.5 21.3989786939,16.5 M 13,18.5858714174 C 13,17.4411134734 13.8916428774,16.5 15.0347018534,16.5 M 31.5,27 v -6 m -27,6 V 21 M 11,22.5 H 4.5 m 27,0 H 25 M 13.5,27 h -9 m 27,0 h -9 m 1,-7.5 v -3 m -10.4998560352,3 -2.879297e-4,-3 M 20,28 h -4 m 4,-3 h -4 m 4,-3 H 16 M 28.2760425706,19.5 H 22.5 V 24 M 25,22.4999999997 h 5.5 m -2,0 v -9 M 7.90399571004,19.5 H 13.5 V 24 M 11,22.4999999997 H 5.56742884843 m 2,0 L 7.5,13.5 m 7.5,0 H 4.41001791617 L 18,7.5 l 13.6305563528,6 H 21 m -3,-2 7,5 H 10.5 Z"
         inkscape:connector-curvature="0"
         sodipodi:nodetypes="ccccccccccccccccccccccccccccccccccccccccccccccccccccc"
         style="stroke-width:1.5;stroke:#ffffff" />
    </g>
    <g
       transform="translate(428.319559463,337.71149581)"
       id="g1242"
       style="fill:none;stroke:#ffffff;stroke-width:1.5;stroke-linecap:round;stroke-linejoin:round;stroke-miterlimit:5">
      <path
         sodipodi:nodetypes="cccccccccssscccccc"
         inkscape:connector-curvature="0"
         d="m 19.604802445,18.2507550999 c 2.2564801656,-2.6762172931 1.3345422305,-6.068077642 -0.2650825962,-7.6916934006 M 12,19.5 c -1.7466958781,3.927501153 -1.2199759601,8.4418458107 0,12 l 2,0.5 m 1,-12.5 c -1.585586909,3.7122805422 0,7.5 1.5,9 l 1.9165173691,0.4760971617 M 16.5,7.5 c 0.2684454939,1.33392198417 2.5847744027,2.5230332415 2.8397198488,3.0590616993 C 19.9223539992,11.784082006 17.3277335709,10.3543099656 13.5,10.5 7.73455408192,10.7194460384 1.5,21 4.5,21 c 3,0 3,-1.6067007903 9,-1.5 6,0 11.3681929257,-3.3597297538 8.7411640694,-7.953637069 -0.697151964,-1.1998034193 0.2679173154,-1.5049112826 1.168815334,-1.4808331286 C 27.3487661311,10.232637716 29.8966440044,12.818276278 31.5,16.5 c 0.015360787,-4.0157263394 -3,-9 -9,-9 -0.1567948806,-4.5 -6,-4.5 -6,0 z"
         id="path6465-36"
         style="stroke:#ffffff" />
    </g>
    <g
       transform="translate(522.037041572,152.234707312)"
       id="g1255"
       style="fill:none;stroke:#ffffff;stroke-width:1.5;stroke-linecap:round;stroke-linejoin:round;stroke-miterlimit:5">
      <path
         id="path5070"
         d="M 25.5,21 C 25.431704773,21.033896914 24,22.1986010992 24,22.5 v 4 c 0.7848518946,0.4794494128 6.0651577564,0.7439104808 4.5,2 h -2 M 28.5,9 C 28.5,4.5 27.2383774277,6.3290668332 27,6.68117773527 m 1,2.60029355171 C 25.5,3 25.6754355375,7.3555387806 27,10 m -1.731046625,5.383611079 C 25.276805615,15.8570431976 25.5,18 24.6097372952,18.9482958905 c 2.4395251691,0.9641391617 1.9869469427,4.5084329499 2.4234487441,5.4100930902 C 27.450883796,25.2212260011 28.6230163554,23.4523233213 27,19.276073119 M 28.5,18 c -0.2726309843,1.2881276946 0,2.8681640532 1.4067746831,2.8681640532 C 30.2486776752,20.7276048526 29.9743420336,15.9347965865 28,15 c -0.4528675194,-0.2144198349 0.9463345358,-1.5606589945 1.5,-2 6,-0.073885475 3.3503007618,-1 0.50963901,-2.6400568271 C 27.6356593645,8.00518085129 26,10.5 26,13 25.907260931,13.4067831454 22.6848265784,12.1604287881 19.5,13.5 11.1629147792,17.0066733006 21.4057505858,24.5003491859 8,27.5793234577 -3.59101563015,30.2415422412 11.3150223201,29.9378041316 16.5,25.5 c 5.3250161531,-4.5576458209 0.9569361755,4.5497223883 3.8789512307,4.5497223883 H 25.5 C 26.6554362207,29.8696457647 24.599074782,28.0392249296 22.3101886081,28.0409565548 21.0184127317,28.0409565548 27,15 19,18"
         inkscape:connector-curvature="0"
         sodipodi:nodetypes="csccccccccccccccccccscscsc"
         style="stroke:#ffffff" />
    </g>
    <g
       transform="translate(333.405086491,245.375892388)"
       id="g1268"
       style="fill:none;stroke:#ffffff;stroke-width:1.5;stroke-linecap:round;stroke-linejoin:round;stroke-miterlimit:5">
      <path
         sodipodi:nodetypes="ccccccccssssssssssssssssss"
         inkscape:connector-curvature="0"
         d="m 28.4818261269,18.7502571927 c 2.5992345277,-0.124052619 5.3083821013,-2.2267815372 3.0928746601,-4.2799334095 1.0026272019,-0.9653491698 1.1275008284,-3.2513183698 -1.2301213962,-3.6133880305 0.3067026341,-5.54915729878 -7.8077917794,-5.23507632967 -9.1380438906,-0.2104891441 M 7.51817307299,18.7502571927 C 4.91894391137,18.6262045737 2.20979097175,16.5234756555 4.42529841289,14.4703237832 3.42267121101,13.5049746134 3.29779758452,11.2190054134 5.65541980905,10.8569357527 5.34872254112,5.30777845392 13.4632115885,5.62185942303 14.7934636997,10.6464466086 m 5.2895311258,12.4363689627 c 0,1.1140588433 -0.9047931613,2.0171831593 -2.0209125723,2.0171831593 -1.1161194112,0 -2.0209179385,-0.903124316 -2.0209179385,-2.0171831593 0,-1.1140588433 0.9047985273,-4.6482867287 2.0209179385,-4.6482867287 1.116119411,0 2.0209125723,3.5342278854 2.0209125723,4.6482867287 z m 3.4619094691,-5.7007324492 c 0,0.5231212764 -1.8979009694,0.5231212764 -1.8979009694,0 0,-0.5231266427 0.4248633171,-0.9472011486 0.9489504847,-0.9472011486 0.5240925338,0 0.9489504847,0.4240745059 0.9489504847,0.9472011486 z m -9.4543625075,0 c 0,0.5231212764 -1.8979009693,0.5231212764 -1.8979009693,0 0,-0.5231266427 0.424863317,-0.9472011486 0.9489504847,-0.9472011486 0.5240925336,0 0.9489504846,0.4240745059 0.9489504846,0.9472011486 z m 14.3396950207,2.9468426515 c 0,4.9599851662 -4.6891868525,8.1739772095 -10.473597671,8.1739772095 -5.7844108186,0 -10.47360303714,-3.2139920433 -10.47360303714,-8.1739772095 0,-4.9599851663 4.68919221854,-10.1385353999 10.47360303714,-10.1385353999 5.7844108185,0 10.473597671,5.1785502336 10.473597671,10.1385353999 z"
         id="path6715-9"
         style="stroke-width:1.5;stroke:#ffffff" />
    </g>
    <g
       transform="translate(144.768893239,522.991265417)"
       id="g1281"
       style="fill:none;stroke:#ffffff;stroke-width:1.5;stroke-linecap:round;stroke-linejoin:round;stroke-miterlimit:5">
      <path
         sodipodi:nodetypes="cccccsccccccccccsc"
         inkscape:connector-curvature="0"
         d="m 14.3731818538,29.6934036143 c 1.5273040412,-1.3667166675 3.0041880494,-0.7212404958 3.9729010401,0.3065963858 M 17.9135515175,8.04368204307 c 0,0 1.1069388834,-0.32855504417 3.1345636859,-0.3182207116 0.2997531874,-0.33518244437 0.2123549469,-1.19368013916 1.129909395,0.0696116799 2.338172692,0.14374073341 6.0167107022,0.54292410675 8.1905651102,1.50205566067 0.5135995392,0.22660721401 -3.0308079473,1.84915016136 -8.6302370069,0.0285333071 M 5.20494093743,29.9750537368 7.40579888413,22.8291913307 C 5.07328489879,11.5483155371 20.2419221788,6.21641381146 19.3761736671,13.8848050035 c -0.3173767011,1.9875870569 -2.1671982346,9.0992190849 -6.0836129165,8.6057223398 0.4778777561,1.7764597619 -1.5454023108,6.4663380857 -5.58166168084,8.7764953855 -1.55651351649,1.2089682373 -3.91957972102,2.0025442646 -2.50595813233,-1.291968992 z M 13.6992730804,10.564669316 C 12.0145802728,1.82832676839 25.1260571802,3.41256794638 25.2367280499,7.97033945349 m 0.3152379022,2.40105147011 c -0.3608720123,1.2861664201 -3.8970168283,2.0885326245 -2.8844488629,3.4949225782 2.7020898555,3.7530315235 -0.087570878,12.9855371214 -9.5823719059,13.5193401607"
         id="path1426-8"
         style="stroke-width:1.5;stroke:#ffffff" />
    </g>
    <g
       transform="translate(238.883722479,432.20913535)"
       id="g1294"
       style="fill:none;stroke:#ffffff;stroke-width:1.5;stroke-linecap:round;stroke-linejoin:round;stroke-miterlimit:5">
      <path
         sodipodi:nodetypes="ccccccccccccccccccccccccccccccccccccccccssssscccc"
         inkscape:connector-curvature="0"
         d="M 16.982825322,23.5866466371 17.5,21 l 2,-1.9999542952 -6,-9.14096e-5 L 15.5,21 16.1548901848,23.5866466371 M 14,25.125263085 v -0.9825909352 l 1.9540545186,-0.5591017139 h 1.2296064698 L 19,24.1426721498 V 24.874736915 M 31.5,10.5 26.8305247989,19.4999978578 Z M 25.5,9 20.2846299515,16.469443812 Z M 9,9 l 4.8278806734,7.4521005495 z m 13.5,1.5 4.2516532277,9.0000021422 z m -3,-6 -3.0498334471,12.0303423136 z m -15,7.5 2.01819676748,7.5000021421 z m 6,-1.5 -2.8917311935,8.9999978579 z m 23.9999999999,6.0985328688 H 1.5 M 12,19.5 H 1.5 m 32.9999999999,0 H 21 M 4.09376889437,27.81223966 c 0.89583006864,0.1650566185 1.92333268891,0.3194322207 2.63288549206,0.3194322207 1.52464330069,0 2.99262537433,-0.7127532521 4.51726867497,-0.7127532521 1.5246433007,0 2.9926253744,0.7127532521 4.517268675,0.7127532521 1.5246433009,0 2.9926210899,-0.7127532521 4.5172686751,-0.7127532521 1.5246433007,0 2.9926253743,0.7127532521 4.5172686749,0.7127532521 1.5246390163,0 2.9926253743,-0.7127532521 4.5172643908,-0.7127532521 M 14.4617923449,7.52760380129 17.3216912043,16.3776076377 Z"
         id="path7773-3"
         style="stroke-width:1.5000001192;stroke:#ffffff" />
    </g>
    <g
       transform="translate(332.850809573,337.728872258)"
       id="g1307"
       style="fill:none;stroke:#ffffff;stroke-width:1.5;stroke-linecap:round;stroke-linejoin:round;stroke-miterlimit:5">
      <path
         id="path1294-1"
         d="m 32.5,20.5 c -10,-4 -19.4304889203,2.2438137764 -10,9.5 C 16.2341048036,27.4728208624 15.2220485416,29.3338466995 12,30 17.9023500822,27.3206782741 17.2654216348,19.6170897728 9.24104196229,18.8719671883 M 13.782587914,23.0265806061 C -1.5,25.5 5.06796848955,6.05363926324 13.5,10.5 c 0,-6 10.541182359,-6.22158306017 10.5,1.5 2.583311442,-0.076870385 4.5,1.5 4.5,4.5 m -3,6 c -1.5,1.5 -4.2626502578,0.8739694386 -4,1"
         inkscape:connector-curvature="0"
         sodipodi:nodetypes="cccccccccc"
         style="stroke:#ffffff" />
    </g>
    <g
       transform="translate(333.194313732,523.979481437)"
       id="g1320"
       style="fill:none;stroke:#ffffff;stroke-width:1.5;stroke-linecap:round;stroke-linejoin:round;stroke-miterlimit:5">
      <path
         sodipodi:nodetypes="sssccccccccsssccsccsssssssssssssssssssccsssc"
         inkscape:connector-curvature="0"
         d="m 12.7405767243,9.63076218571 c 0.1140513703,0.1214548027 -0.7555292152,-0.8412946105 -0.5938699536,-0.56409025483 0.165231676,0.28332377732 0.3806101022,0.3369850457 0.5938699536,0.56409025483 z m 0.5595610508,8.08112240519 c -0.1994719611,0.7444388623 0.2394504102,1.5088712379 0.9803640328,1.7073997041 M 8.34567060005,17.6658977953 c 0,-0.7707023275 0.62181455502,-1.395480314 1.38886298436,-1.395480314 M 10.4063276336,14.840555358 c -0.2730345374,0.5256638548 -0.3173316195,0.6425585754 -0.4040173512,1.2710633665 m 0.1513022616,2.9129673751 c 0.5142218357,1.6248567725 1.5210680528,2.4679251533 2.5366716173,3.6321634622 M 18.9349805138,11.377741069 c -2.8319683441,1.4945983055 -2.1597025475,4.3391751714 -5.0236853866,4.3391751714 -2.8639785505,0 -2.1959584805,-2.8656768412 -4.96492281322,-4.8705029972 C 7.89009983373,10.0816377787 8.14553819257,8.53352101575 8.70250892123,7.38970079266 4.58483159774,3.93206757689 8.94070276779,1.33405121235 10.2250908544,5.58492255846 11.1093299187,4.92605910583 12.2424028779,4.5 13.5,4.5 c 1.7808293334,0 3.2056351821,0.46120900565 4.2560837261,1.15782640382 0.085656464,-1.99559191483 6.9787267514,-4.59001656609 1.9096721295,2.27925020397 0.4958365524,1.27571951344 0.4154679475,2.83572259571 -0.7307753418,3.44066446121 z m -4.1501249684,3.6400926786 c 0,0.3685976976 -0.2973895698,0.6674067982 -0.6642375134,0.6674067982 -0.3668522322,0 -0.6642418019,-0.2988091006 -0.6642418019,-0.6674067982 0,-0.368593409 0.2973895697,-0.6674025097 0.6642418019,-0.6674025097 0.3668479436,0 0.6642375134,0.2988091007 0.6642375134,0.6674025097 z m 2.8031317113,-5.50514436436 c -0.1123659454,0.27428724117 -0.8851482502,-0.49629714946 -0.5938656651,-0.56409025489 0.4095839707,-0.0953268577 0.96942807,-0.35266464315 0.5938656651,0.56409025489 z m 0.4977750054,0.38862251757 c 0,0.77070275639 -0.6218188436,1.39548074289 -1.3888672729,1.39548074289 -0.7670484294,0 -1.3888629844,-0.6247779865 -1.3888629844,-1.39548074289 0,-0.77070275632 0.621814555,-1.39548074283 1.3888629844,-1.39548074283 0.7670484293,0 1.3888672729,0.62477798651 1.3888672729,1.39548074283 z m -4.9265397281,0 c 0,0.77070275639 -0.6218188437,1.39548074289 -1.388867273,1.39548074289 -0.7670484293,0 -1.3888629844,-0.6247779865 -1.3888629844,-1.39548074289 0,-0.77070275632 0.6218145551,-1.39548074283 1.3888629844,-1.39548074283 0.7670484293,0 1.388867273,0.62477798651 1.388867273,1.39548074283 z m 6.1708807479,14.29874646009 c -2.6182496111,-1.2016864763 -2.2835919956,3.1665744963 0.092123693,3.1579329414 3.7106021913,0 5.1053148435,-6.9924717557 -1.208702647,-6.7947409714 -6.3140174909,0.1977307843 -6.5412196228,10.040105863 0.7370152732,10.6388948556 6.4883667577,0.533803642 10.2937858906,-7.1910259535 10.4741649472,-10.2321327921 C 29.6713426737,16.8123394674 27.654365162,8.29519079129 19.8104922508,8.29519079129"
         id="path1473-7"
         style="stroke-width:1.5;stroke:#ffffff" />
    </g>
    <g
       transform="translate(428.134891708,431.019180698)"
       id="g1333"
       style="fill:none;stroke:#ffffff;stroke-width:1.5;stroke-linecap:round;stroke-linejoin:round;stroke-miterlimit:5">
      <path
         sodipodi:nodetypes="ccssssssssssccccccc"
         inkscape:connector-curvature="0"
         d="m 21.2183476384,4.25923737146 2.4478628473,-0.67206634134 m 7.5905296099,24.92873745758 c 0,1.6135528183 -1.3105634774,2.9215915091 -2.9272287053,2.9215915091 -1.6166751872,0 -2.9272436445,-1.3080386908 -2.9272436445,-2.9215915091 0,-1.6135528175 1.3105684573,-2.9215964885 2.9272436445,-2.9215964885 1.6166652279,0 2.9272287053,1.308043671 2.9272287053,2.9215964885 z m -21.075890251,0 c 0,1.6135528183 -1.31056845743,2.9215915091 -2.92723368501,2.9215915091 -1.61667518724,0 -2.92723866479,-1.3080386908 -2.92723866479,-2.9215915091 0,-1.6135528175 1.31056347755,-2.9215964885 2.92723866479,-2.9215964885 1.61666522758,0 2.92723368501,1.308043671 2.92723368501,2.9215964885 z m 16.4385742317,-5.5695598844 c -2.9863246493,0.5329690212 -4.7235471952,2.9982613622 -4.5058179588,5.3961663004 L 7.32806499742,28.4416040657 M 12.4717028319,28.1833985648 C 12.219074769,26.1423351232 10.8923118218,24.043749372 8.70456674,23.3413706507 M 22.872018171,4.84447993442 28.2761422806,28.6730328848"
         id="path7505-3-0"
         style="stroke-width:1.5;stroke:#ffffff" />
    </g>
    <g
       transform="translate(522.83520227,430.912941017)"
       id="g1346"
       style="fill:none;stroke:#ffffff;stroke-width:1.5;stroke-linecap:round;stroke-linejoin:round;stroke-miterlimit:5">
      <path
         id="path868"
         d="m 11.5,20.5 c 0.1,-0.1 -0.1,0.1 0,0 z M 14,23 c 0.1,-0.1 -0.1,0.1 0,0 z m 7.5,-12.5 c 0.1,-0.1 -0.1,0.1 0,0 z M 24,13 c 0.1,-0.1 -0.1,0.1 0,0 z m -9,14 c 0.8357806834,-0.8342407596 2.2409267942,-0.7576760933 2.968721052,-0.031221699 L 18,27 c 0.727794258,0.7264543948 0.8357799443,2.1657594381 0,3 -0.8357798186,0.8342425052 -2.2409269795,0.7576761425 -2.968721607,0.031221847 L 15,30 c -0.7277946274,-0.7264542955 -0.8357806827,-2.1657592397 0,-3 z m 1.5,-1.5 1.4999999995,1.5 c 0.7271246346,0.7271246348 0.8357799442,2.1657594376 -1e-10,2.9999999995 -0.8357798186,0.8342425051 -2.2415834112,0.7583331915 -2.9687216069,0.031221847 L 13.5,28.5 M 27,15 c 0.8357806834,-0.8342407596 2.2409267942,-0.7576760933 2.968721052,-0.031221699 L 30,15 c 0.727794258,0.7264543948 0.8357799443,2.1657594381 0,3 -0.8357798186,0.8342425052 -2.2409269795,0.7576761425 -2.968721607,0.031221847 L 27,18 c -0.7277946274,-0.7264542955 -0.8357806827,-2.1657592397 0,-3 z m 1.5,-1.5 1.4999999995,1.5 c 0.7271246346,0.7271246348 0.8357799442,2.1657594376 -1e-10,2.9999999995 -0.8357798186,0.8342425051 -2.2415834112,0.7583331915 -2.9687216069,0.031221847 L 25.5,16.5 m -12,12 C 9,33 1.5,25.5 6,21 L 21,6 c 4.5,-4.5 12,3 7.5,7.5 z"
         inkscape:connector-curvature="0"
         sodipodi:nodetypes="ssssssssscccccscscscscccccscscscsssss"
         style="stroke:#ffffff" />
    </g>
    <g
       transform="translate(144.32615062,152.27111804)"
       id="g1359"
       style="fill:none;stroke:#ffffff;stroke-width:1.5;stroke-linecap:round;stroke-linejoin:round;stroke-miterlimit:5">
      <path
         id="path5644-7"
         d="m 18,22.5 c 2.7227410113,0.342959777 3.1065491629,4.3952245434 3,9 h 3 c 0.053571852,-4.5518044724 -1.8469262461,-10.8598716381 -6,-9 m 1.5,-6 c 7.5,-3 7.8138483997,7.8642043475 7.6487343627,15 H 31.5 c 0.7413084428,-7.456047332 -4.5,-21 -12,-15 m 6,-12 c -3,9 -21.00000000001,6 -21.00000000001,27 H 10.5 C 10.449420051,9.91205256725 24,18 25.5,4.5"
         inkscape:connector-curvature="0"
         sodipodi:nodetypes="cccccccccccc"
         style="stroke-width:1.5;stroke:#ffffff" />
    </g>
    <g
       transform="translate(238.883722479,152.265809544)"
       id="g1372"
       style="fill:none;stroke:#ffffff;stroke-width:1.5;stroke-linecap:round;stroke-linejoin:round;stroke-miterlimit:5">
      <path
         id="path907"
         d="m 16.5,14 v 8.5 m 3,-8.5 v 8.5 M 2,15 c 4,0 7,-4.5 8.5,-7.5 3,9 12,9 15,0 1.5,3 4.5,7.5 8.5,7.5 m 0,7.5 H 2 m 8.5,-15 v 21 m 15,-21 v 21 m -12,-16 v 10 m 9,-10 v 10 M 28.5,12 V 22.5 M 7.5,12 v 10.5 m 24,-8 v 8 m -27,-8 v 8"
         inkscape:connector-curvature="0"
         sodipodi:nodetypes="cccccccccccccccccccccccccc"
         style="stroke:#ffffff" />
    </g>
    <g
       transform="translate(522.352538065,244.068461849)"
       id="g1385"
       style="fill:none;stroke:#ffffff;stroke-width:1.5;stroke-linecap:round;stroke-linejoin:round;stroke-miterlimit:5">
      <path
         id="rect6626-2"
         d="m 9.53487539,34.0735487149 c 0.532168144,0.9319263666 5.5483198348,-4.4500435336 1.3324373981,-8.7463105071 -1.47161980402,0.7809726866 -2.43528076128,2.0023640052 -3.27108819987,3.3346085111 3.87957511967,0.9112173872 1.61699636008,4.8484250966 1.93865080177,5.411701996 z m 2.9089816915,-3.9071034295 c 1.5451515871,-1.1685787598 4.7678763504,-3.8342559273 6.7272777424,-5.776887307 C 27.2404835357,16.3892727478 34.053954046,6.23945177918 31.984294952,4.07740804121 29.9093902188,1.90988621416 18.2194383931,10.1158003784 11.4966976796,16.7810028824 c -4.4875217531,4.449114208 -7.00739271957,8.4594572679 -7.5546778414,11.2612363624 -0.27260080286,1.3955563517 -0.0558043054,2.4912683954 0.65100200023,3.1920070448 1.09437592815,1.0849811378 2.78693813983,1.3591190026 5.27268842547,0.2782113651"
         inkscape:connector-curvature="0"
         style="stroke-width:1.5;stroke:#ffffff" />
    </g>
    <g
       transform="translate(427.926450503,523.28482962)"
       id="g1398"
       style="fill:none;stroke:#ffffff;stroke-width:1.5;stroke-linecap:round;stroke-linejoin:round;stroke-miterlimit:5">
      <path
         id="path4960"
         d="m 12,21 c 4.6398444631,-1.6750794758 8.0589469983,-1.4247479961 12,0 M 9.28484040772,4.5 H 26.7151165602 v 6 H 9.28484040772 Z M 7.5,17.4999999997 18,15 28.5,17.4999999997 m 0,6.2892715479 L 18,26 7.5,23.7892715476 M 10.1968932445,10.5 H 25.4987304872 L 28.5,13.5 V 27.2130168442 C 28.5,29.6604448053 26.3451909251,31.5 23.9009702371,31.5 H 12.0989867308 C 9.65476604276,31.5 7.5,29.6604448053 7.5,27.2130168442 V 13.5 Z"
         inkscape:connector-curvature="0"
         sodipodi:nodetypes="ccccccccccccccccsssscc"
         style="stroke:#ffffff" />
    </g>
    <g
       transform="translate(333.405086491,152.318631835)"
       id="g1411"
       style="fill:none;stroke:#ffffff;stroke-width:1.5;stroke-linecap:round;stroke-linejoin:round;stroke-miterlimit:5">
      <path
         id="path869"
         d="m 33,25.5 c -3,0 -4.5,-1.5 -6,-3 -3,3 -6,3 -9,0 -3,3 -6,3 -9,0 -1.5,1.5 -3,3 -6,3 m 0,-9 H 4.5 C 9,16.5 12,4.3942804185 19.3418687826,4.3942804185 21,4.3942804185 28.4651043611,4.45909338677 28.5,10.5 24,6 18,12.1686076298 22.18825518,15.8115010952 25.1209210318,18.3622982192 30.5521301266,16.6474583679 33,15 m 0,16.5 c -3,0 -4.5,-1.5 -6,-3 -3,3 -6,3 -9,0 -3,3 -6,3 -9,0 -1.5,1.5 -3,3 -6,3"
         inkscape:connector-curvature="0"
         sodipodi:nodetypes="ccccccsscscccccc"
         style="stroke:#ffffff" />
    </g>
    <path
       inkscape:connector-curvature="0"
       d="m 554.629440375,538.901525184 c 0,4.1246445 -2.287187149,7.93597318 -6.000000161,9.99829537 -3.712813011,2.0623222 -8.287187248,2.0623221 -12.00000016,-2.7e-7 -3.712812913,-2.06232236 -5.999999878,-5.87365114 -5.999999679,-9.99829564 z m -6.642579255,-5.79714778 -1.995041576,-7.44694207 -7.569696791,2.02866075 1.995041576,7.44694207 z m -6.006193987,-1.18392159 3.046149886,-0.81636093 m -3.652973185,-1.44874372 3.046149886,-0.81636093 m -13.464630619,4.70595959 8.175525387,-2.19102137 m -8.150044367,3.68071918 -0.681637877,-2.54436692 -4.033034435,1.08084365 0.681637877,2.54436691 z m 5.314305005,14.38037783 c -1.561619374,1.49928495 -2.665708751,2.34562976 -2.665708751,4.48649972 m 18,0 c 0,-2.06600688 -1.041818282,-2.84570146 -2.504309668,-4.32731761 m -0.240138367,-7.32479255 a 7.2232892399,6.69561661883 0 0 1 -8.125076687,3.11966071 m 12.369524722,-18.46755055 c -5.483861858,3.56909778 4.413425808,5.14769887 -0.344855288,8.89774609 m -10.155144712,15.10225391 v 6"
       id="path5022"
       style="fill:none;stroke:#ffffff;stroke-width:1.5;stroke-linecap:round;stroke-linejoin:round;stroke-miterlimit:5" />
    <path
       id="circle6804-2"
       d="m 345.397244397,441.209661838 h 3.710962111 m 3.768047614,-2.506611607 h 3.311322637 l 5.077420083,14.324590525 m -10.700951312,-0.253372594 -4.024968212,-11.308248901 m -4.882397577,11.384205897 6.301645559,-7.573802377 10.056627504,-0.219658869 -7.450907274,7.71750425 z m 5.404681285,0.05696263 a 5.46177139466,5.44998618232 0 0 1 -5.461771907,5.449986183 5.46177139466,5.44998618232 0 0 1 -5.461771907,-5.449986183 5.46177139466,5.44998618232 0 0 1 5.461771907,-5.449986182 5.46177139466,5.44998618232 0 0 1 5.461771907,5.449986182 z m 19.610994744,0 a 5.46177139466,5.44998618232 0 0 1 -5.461771907,5.449986182 5.46177139466,5.44998618232 0 0 1 -5.461771907,-5.449986182 5.46177139466,5.44998618232 0 0 1 5.461771907,-5.449986182 5.46177139466,5.44998618232 0 0 1 5.461771907,5.449986182 z"
       inkscape:connector-curvature="0"
       style="fill:none;stroke:#ffffff;stroke-width:1.5;stroke-linecap:round;stroke-linejoin:round;stroke-miterlimit:5" />
  </g>
</svg>
