<?xml version="1.0" encoding="UTF-8" standalone="no"?>
<!-- Created with Inkscape (http://www.inkscape.org/) -->

<svg
   xmlns:dc="http://purl.org/dc/elements/1.1/"
   xmlns:cc="http://creativecommons.org/ns#"
   xmlns:rdf="http://www.w3.org/1999/02/22-rdf-syntax-ns#"
   xmlns:svg="http://www.w3.org/2000/svg"
   xmlns="http://www.w3.org/2000/svg"
   xmlns:sodipodi="http://sodipodi.sourceforge.net/DTD/sodipodi-0.dtd"
   xmlns:inkscape="http://www.inkscape.org/namespaces/inkscape"
   width="36"
   height="36"
   viewBox="0 0 36 36"
   version="1.1"
   id="svg"
   inkscape:version="0.92.4 (unknown)"
   sodipodi:docname="cityhall-bne.svg"
   style="fill:none;stroke:#ee0000;stroke-width:1.5;stroke-linecap:round;stroke-linejoin:round;stroke-miterlimit:5">
  <defs
     id="defs10" />
  <sodipodi:namedview
     id="base"
     pagecolor="#cbccd2"
     bordercolor="#666666"
     borderopacity="1.0"
     inkscape:pageopacity="0"
     inkscape:pageshadow="2"
     inkscape:zoom="22.6274169442"
     inkscape:cx="18"
     inkscape:cy="12.1024690944"
     inkscape:document-units="px"
     inkscape:current-layer="svg"
     showgrid="true"
     units="px"
     inkscape:window-width="1280"
     inkscape:window-height="648"
     inkscape:window-x="0"
     inkscape:window-y="36"
     inkscape:window-maximized="1"
     inkscape:showpageshadow="false"
     borderlayer="true"
     showguides="true"
     inkscape:guide-bbox="true"
     guidecolor="#0499c5"
     guideopacity="1"
     inkscape:snap-smooth-nodes="true">
    <inkscape:grid
       type="xygrid"
       id="pixels"
       spacingx="1.5"
       spacingy="1.5"
       empspacing="2"
       empcolor="#404040"
       empopacity="0.25"
       color="#dadada"
       opacity="0.2"
       originy="0"
       originx="0" />
    <sodipodi:guide
       position="3,3"
       orientation="1,0"
       id="gl"
       inkscape:locked="false" />
    <sodipodi:guide
       position="33,33"
       orientation="0,1"
       id="g2"
       inkscape:locked="false" />
    <sodipodi:guide
       position="33,33"
       orientation="1,0"
       id="g3"
       inkscape:locked="false" />
    <sodipodi:guide
       position="3,3"
       orientation="0,1"
       id="g4"
       inkscape:locked="false" />
  </sodipodi:namedview>
  <metadata
     id="metadata3728">
    <rdf:RDF>
      <cc:Work
         rdf:about="">
        <dc:title></dc:title>
        <dc:format>image/svg+xml</dc:format>
        <dc:type
           rdf:resource="http://purl.org/dc/dcmitype/StillImage" />
      </cc:Work>
    </rdf:RDF>
  </metadata>
  <path
     id="path7614-9"
     d="m 25.5,22.49745459 h -15 M 10.4661696965,31.5 H 3.34340586562 m 29.31318826878,0 H 25.5 m 7.1565941344,-3 H 25.5 10.5 3.34340586562 M 32.6565941344,25 H 25.5 m -15,0 H 3.34340586562 M 10.5,21.7337379126 H 3.34340586562 m 29.31318826878,0 H 25.5 M 20.6047898154,9.75000000007 c 0,1.43572759933 -1.1662042875,2.59961478243 -2.6047901845,2.59961478243 -1.4385858911,0 -2.6047901786,-1.1638871826 -2.6047901786,-2.59961478243 0,-1.43572759897 1.1662042875,-2.59961478257 2.6047901786,-2.59961478257 1.438585897,0 2.6047901845,1.16388718413 2.6047901845,2.59961478257 z M 15,13.5 v -6 L 18,3 21,7.5 v 6 m -7.5,4.4824805497 V 13.5 h 9 v 4.4824805497 M 18.0000000022,16.5 27,19.5 H 9 Z M 4.5,28.5 V 25 m 27,0 v 3.5 m -24,0 V 25 m 21,0 v 3.5 m -12,0 v -5.9200787856 m 3,0 V 28.5 m -6,0 v -5.9200787856 m 9,0 V 28.5 M 10.4661696965,31.5 10.5,19.5 m 15,0 v 12"
     inkscape:connector-curvature="0"
     sodipodi:nodetypes="ccccccccccccccccccsssssccccccccccccccccccccccccccccccccc"
     style="stroke-width:1.5" />
</svg>
