<?xml version="1.0" encoding="UTF-8" standalone="no"?>
<!-- Created with Inkscape (http://www.inkscape.org/) -->

<svg
   xmlns:dc="http://purl.org/dc/elements/1.1/"
   xmlns:cc="http://creativecommons.org/ns#"
   xmlns:rdf="http://www.w3.org/1999/02/22-rdf-syntax-ns#"
   xmlns:svg="http://www.w3.org/2000/svg"
   xmlns="http://www.w3.org/2000/svg"
   xmlns:sodipodi="http://sodipodi.sourceforge.net/DTD/sodipodi-0.dtd"
   xmlns:inkscape="http://www.inkscape.org/namespaces/inkscape"
   width="36"
   height="36"
   viewBox="0 0 36 36"
   version="1.1"
   id="svg"
   inkscape:version="0.92.4 (unknown)"
   sodipodi:docname="citycat-ferry.svg"
   style="fill:none;stroke:#ee0000;stroke-width:1.5;stroke-linecap:round;stroke-linejoin:round;stroke-miterlimit:5">
  <defs
     id="defs10" />
  <sodipodi:namedview
     id="base"
     pagecolor="#cbccd2"
     bordercolor="#666666"
     borderopacity="1.0"
     inkscape:pageopacity="0"
     inkscape:pageshadow="2"
     inkscape:zoom="15.9999999662"
     inkscape:cx="19.681826902"
     inkscape:cy="19.6159175006"
     inkscape:document-units="px"
     inkscape:current-layer="svg"
     showgrid="true"
     units="px"
     inkscape:window-width="1280"
     inkscape:window-height="648"
     inkscape:window-x="0"
     inkscape:window-y="36"
     inkscape:window-maximized="1"
     inkscape:showpageshadow="false"
     borderlayer="true"
     showguides="true"
     inkscape:guide-bbox="true"
     guidecolor="#0499c5"
     guideopacity="1"
     inkscape:snap-smooth-nodes="true">
    <inkscape:grid
       type="xygrid"
       id="pixels"
       spacingx="1.5"
       spacingy="1.5"
       empspacing="2"
       empcolor="#404040"
       empopacity="0.25"
       color="#dadada"
       opacity="0.2"
       originy="0"
       originx="0" />
    <sodipodi:guide
       position="3,3"
       orientation="1,0"
       id="gl"
       inkscape:locked="false" />
    <sodipodi:guide
       position="33,33"
       orientation="0,1"
       id="g2"
       inkscape:locked="false" />
    <sodipodi:guide
       position="33,33"
       orientation="1,0"
       id="g3"
       inkscape:locked="false" />
    <sodipodi:guide
       position="3,3"
       orientation="0,1"
       id="g4"
       inkscape:locked="false" />
  </sodipodi:namedview>
  <metadata
     id="metadata3728">
    <rdf:RDF>
      <cc:Work
         rdf:about="">
        <dc:title></dc:title>
        <dc:format>image/svg+xml</dc:format>
        <dc:type
           rdf:resource="http://purl.org/dc/dcmitype/StillImage" />
      </cc:Work>
    </rdf:RDF>
  </metadata>
  <path
     sodipodi:nodetypes="cccssssccccccccccccssssccssssssccssccccc"
     inkscape:connector-curvature="0"
     d="M 14.8221943544,6.11179276933 H 21.265044986 M 7.58380802227,28.8410449908 c 0.92729543693,-0.3378231944 1.84497701515,-0.7187433377 2.84763779663,-0.7187433377 1.8015047952,0 3.3286911918,1.2296999316 5.1301959869,1.2296999316 1.8015047951,0 3.3286961294,-1.2296999316 5.1302009245,-1.2296999316 1.8015047952,0 3.3286961294,1.2296999316 5.1302009245,1.2296999316 0.9677161086,0 1.8562795949,-0.3548338484 2.7507289157,-0.6832851353 M 25.6222610537,20.7181244013 25.4043419845,16.5 H 10.3134526148 v 3.5725244071 M 8.63108165113,20.330365432 7.45326791776,15.8727149078 C 7.13020374943,14.6812235224 7.05069560695,13.3918280416 8.6245785941,13.5 h 18.0055575374 c 1.4562354276,0 2.080790601,0.5152354313 1.6616322853,2.130442704 l -1.2530358822,5.0876816962 M 5.3012448944,25.3438964778 c 1.80150479516,0 3.32869612941,-1.2296999315 5.1302009245,-1.2296999315 1.8015047952,0 3.3286911918,1.2296999315 5.1301959869,1.2296999315 1.8015047951,0 3.3286961294,-1.2296999315 5.1302009245,-1.2296999315 1.8015047952,0 3.3286961294,1.2296999315 5.1302009245,1.2296999315 1.8015047953,0 3.3286961295,-1.2296999315 5.1302009246,-1.2296999315 M 3.73964216746,21.2215953198 c 0.56540056236,0.1152823627 1.11122282481,0.192138917 1.56160272694,0.192138917 1.80150479516,0 3.32869612941,-1.2296999315 5.1302009245,-1.2296999315 1.8015047952,0 3.3286911918,1.2296999315 5.1301959869,1.2296999315 1.8015047951,0 3.3286961294,-1.2296999315 5.1302009245,-1.2296999315 1.8015047952,0 3.3286961294,1.2296999315 5.1302009245,1.2296999315 1.8015047953,0 3.3286961295,-1.2296999315 5.1302009246,-1.2296999315 0.4503749645,0 0.8836059547,0.076856555 1.3082698957,0.192138917 M 26.4329557406,13.5 C 25.4938392571,10.3084768957 25.5254657415,9.5435386331 23.7896235521,9.5435386331 H 11.9885255389 c -1.7358471271,0 -1.7042157049,0.7649382626 -2.64333218848,3.9564613669 M 16.1288495958,9.45646136685 17.0861371119,6.2707078298 h 1.6564278646 l 0.957287516,3.18575353705"
     id="path6882-7"
     style="stroke-width:1.5" />
</svg>
