<?xml version="1.0" encoding="UTF-8" standalone="no"?>
<!-- Created with Inkscape (http://www.inkscape.org/) -->

<svg
   xmlns:dc="http://purl.org/dc/elements/1.1/"
   xmlns:cc="http://creativecommons.org/ns#"
   xmlns:rdf="http://www.w3.org/1999/02/22-rdf-syntax-ns#"
   xmlns:svg="http://www.w3.org/2000/svg"
   xmlns="http://www.w3.org/2000/svg"
   xmlns:sodipodi="http://sodipodi.sourceforge.net/DTD/sodipodi-0.dtd"
   xmlns:inkscape="http://www.inkscape.org/namespaces/inkscape"
   width="36"
   height="36"
   viewBox="0 0 36 36"
   version="1.1"
   id="svg"
   inkscape:version="0.92.4 (unknown)"
   sodipodi:docname="laksa.svg"
   style="fill:none;stroke:#ee0000;stroke-width:1.5;stroke-linecap:round;stroke-linejoin:round;stroke-miterlimit:5">
  <defs
     id="defs10" />
  <sodipodi:namedview
     id="base"
     pagecolor="#cbccd2"
     bordercolor="#666666"
     borderopacity="1.0"
     inkscape:pageopacity="0"
     inkscape:pageshadow="2"
     inkscape:zoom="15.9999999662"
     inkscape:cx="19.4605627621"
     inkscape:cy="26.6017573021"
     inkscape:document-units="px"
     inkscape:current-layer="svg"
     showgrid="true"
     units="px"
     inkscape:window-width="1280"
     inkscape:window-height="648"
     inkscape:window-x="0"
     inkscape:window-y="36"
     inkscape:window-maximized="1"
     inkscape:showpageshadow="false"
     borderlayer="true"
     showguides="true"
     inkscape:guide-bbox="true"
     guidecolor="#0499c5"
     guideopacity="1"
     inkscape:snap-smooth-nodes="true">
    <inkscape:grid
       type="xygrid"
       id="pixels"
       spacingx="1.5"
       spacingy="1.5"
       empspacing="2"
       empcolor="#404040"
       empopacity="0.25"
       color="#dadada"
       opacity="0.2"
       originy="0"
       originx="0" />
    <sodipodi:guide
       position="33,33"
       orientation="0,1"
       id="g2"
       inkscape:locked="false" />
    <sodipodi:guide
       position="33,33"
       orientation="1,0"
       id="g3"
       inkscape:locked="false" />
    <sodipodi:guide
       position="3,3"
       orientation="0,1"
       id="g4"
       inkscape:locked="false" />
    <sodipodi:guide
       position="3,21"
       orientation="1,0"
       id="guide1016"
       inkscape:locked="false" />
  </sodipodi:namedview>
  <metadata
     id="metadata3728">
    <rdf:RDF>
      <cc:Work
         rdf:about="">
        <dc:title></dc:title>
        <dc:format>image/svg+xml</dc:format>
        <dc:type
           rdf:resource="http://purl.org/dc/dcmitype/StillImage" />
      </cc:Work>
    </rdf:RDF>
  </metadata>
  <path
     id="path914"
     d="M 32.9993716448,16.5 24,28.5 l 1.5,3 c -5.4445316354,2.2497451309 -10.3430627188,1.7362176723 -15,0 l 1.5,-3 -9,-12 m 7.5,1.5 h 9 m -5,-7.5 c 1.5204196932,-0.075453827 5.4853986028,-0.088636699 7,0 M 30.1474361109,5.00377987347 C 28.1336007904,7.09775281839 26.1319643947,5.77022678223 25.9868326715,3.57504850358 M 21,13.5 h 7.5 M 22.9496432552,8.10005216145 C 25.6575693388,3.97453255458 29.8582496854,6.33625332803 28,9.5 M 21.5,11 C 23,6.5 29.169526519,7.45621455736 28.0503567448,11.6330130173 M 21,13.5 c -1.2057713659,-4.5 7.5,-4.0597870565 7.5,0 m -15.224244361,2.5783041462 c -1.4221716302,-1.4221716303 -1.4848700935,-2.2918985496 -0.987110068,-2.7896585751 0.4977600255,-0.4977600255 1.3674869448,-0.4350615622 2.789658575,0.987110068 1.4221716306,1.4221716305 -0.3803768765,3.2247201376 -1.802548507,1.8025485071 z m -1.8107124363,1.5158661362 C 7.7514988909,13.7510255937 7.6236457828,11.376354217 9,10 c 1.4179998074,-1.41799980731 3.8956447388,-1.23938681266 7.9470731278,2.8120415763 1.6029784956,1.6029784956 1.7678630914,3.3755895927 1.1307630211,4.6817240574 M 28.5,12 c 6,1.5 6,6 -0.091853097,7.5304934817 -5.9073135495,1.4841304834 -14.7711827979,1.5348390897 -20.7173680051,0.033060306 C 1.5,18 1.5,15 8,11.5 m 14.5,5 v 0 m 3,0 v 0" />
</svg>
