<?xml version="1.0" encoding="UTF-8" standalone="no"?>
<!-- Created with Inkscape (http://www.inkscape.org/) -->

<svg
   xmlns:dc="http://purl.org/dc/elements/1.1/"
   xmlns:cc="http://creativecommons.org/ns#"
   xmlns:rdf="http://www.w3.org/1999/02/22-rdf-syntax-ns#"
   xmlns:svg="http://www.w3.org/2000/svg"
   xmlns="http://www.w3.org/2000/svg"
   xmlns:sodipodi="http://sodipodi.sourceforge.net/DTD/sodipodi-0.dtd"
   xmlns:inkscape="http://www.inkscape.org/namespaces/inkscape"
   width="36"
   height="36"
   viewBox="0 0 36 36"
   version="1.1"
   id="svg"
   inkscape:version="0.92.4 (unknown)"
   sodipodi:docname="merlion.svg"
   style="fill:none;stroke:#ee0000;stroke-width:1.5;stroke-linecap:round;stroke-linejoin:round;stroke-miterlimit:5">
  <defs
     id="defs10" />
  <sodipodi:namedview
     id="base"
     pagecolor="#cbccd2"
     bordercolor="#666666"
     borderopacity="1.0"
     inkscape:pageopacity="0"
     inkscape:pageshadow="2"
     inkscape:zoom="15.0719013286"
     inkscape:cx="17.3075193588"
     inkscape:cy="18.8622287722"
     inkscape:document-units="px"
     inkscape:current-layer="svg"
     showgrid="true"
     units="px"
     inkscape:window-width="1280"
     inkscape:window-height="648"
     inkscape:window-x="0"
     inkscape:window-y="36"
     inkscape:window-maximized="1"
     inkscape:showpageshadow="false"
     borderlayer="true"
     showguides="true"
     inkscape:guide-bbox="true"
     guidecolor="#0499c5"
     guideopacity="1"
     inkscape:snap-smooth-nodes="true">
    <inkscape:grid
       type="xygrid"
       id="pixels"
       spacingx="1.5"
       spacingy="1.5"
       empspacing="2"
       empcolor="#404040"
       empopacity="0.25"
       color="#dadada"
       opacity="0.2"
       originy="0"
       originx="0" />
    <sodipodi:guide
       position="33,33"
       orientation="0,1"
       id="g2"
       inkscape:locked="false" />
    <sodipodi:guide
       position="33,33"
       orientation="1,0"
       id="g3"
       inkscape:locked="false" />
    <sodipodi:guide
       position="3,3"
       orientation="0,1"
       id="g4"
       inkscape:locked="false" />
    <sodipodi:guide
       position="3,21"
       orientation="1,0"
       id="guide1016"
       inkscape:locked="false" />
  </sodipodi:namedview>
  <metadata
     id="metadata3728">
    <rdf:RDF>
      <cc:Work
         rdf:about="">
        <dc:title></dc:title>
        <dc:format>image/svg+xml</dc:format>
        <dc:type
           rdf:resource="http://purl.org/dc/dcmitype/StillImage" />
      </cc:Work>
    </rdf:RDF>
  </metadata>
  <path
     id="path1563"
     d="m 16.5,24 c 0,0 3,1.5 4.5,0 M 6,18 c 0,0 -3,1.5 -3,4.5 M 13.5,8.5 6,10 C 5.13853930577,12.7767898723 6,16 7.86092963845,15.0931163359 12,11.5 16.5,16 9,17.5 c 0,0.5 0.0858123731,2.0367930733 1.5,3 M 10.5,10 C 12.9891161807,1.2615006217 19.6559661438,5.4242164739 18,11.5 16.574201646,17.5515429884 4.00842924883,24.4344944531 10.5,31 L 18,28 c -3.092934946,-2.6575657227 -0.5338050988,-5.9408997711 0,-9 M 21,8.5 c 2.5664724088,4.5897448185 1.3464280741,9.0615796059 0,16.5 -0.037725889,7.0851041105 7.5758830371,7.5563102327 10.5,6 C 29.1325250415,28.7651103717 30,23.5 30,20.5 M 13.5,5.5 c 6,-7.5 19.5,0 18,13.5 -1.8987333274,2.3294273332 -3.8779716915,3.9994760553 -6,4.5 v -12" />
</svg>
