<?xml version="1.0" encoding="UTF-8" standalone="no"?>
<!-- Created with Inkscape (http://www.inkscape.org/) -->

<svg
   xmlns:dc="http://purl.org/dc/elements/1.1/"
   xmlns:cc="http://creativecommons.org/ns#"
   xmlns:rdf="http://www.w3.org/1999/02/22-rdf-syntax-ns#"
   xmlns:svg="http://www.w3.org/2000/svg"
   xmlns="http://www.w3.org/2000/svg"
   xmlns:sodipodi="http://sodipodi.sourceforge.net/DTD/sodipodi-0.dtd"
   xmlns:inkscape="http://www.inkscape.org/namespaces/inkscape"
   width="36"
   height="36"
   viewBox="0 0 36 36"
   version="1.1"
   id="svg"
   inkscape:version="0.92.4 (unknown)"
   sodipodi:docname="singapore-art-science-museum.svg"
   style="fill:none;stroke:#ee0000;stroke-width:1.5;stroke-linecap:round;stroke-linejoin:round;stroke-miterlimit:5">
  <defs
     id="defs10" />
  <sodipodi:namedview
     id="base"
     pagecolor="#cbccd2"
     bordercolor="#666666"
     borderopacity="1.0"
     inkscape:pageopacity="0"
     inkscape:pageshadow="2"
     inkscape:zoom="1"
     inkscape:cx="17.8749999997"
     inkscape:cy="18"
     inkscape:document-units="px"
     inkscape:current-layer="svg"
     showgrid="true"
     units="px"
     inkscape:window-width="1280"
     inkscape:window-height="648"
     inkscape:window-x="0"
     inkscape:window-y="36"
     inkscape:window-maximized="1"
     inkscape:showpageshadow="false"
     borderlayer="true"
     showguides="true"
     inkscape:guide-bbox="true"
     guidecolor="#0499c5"
     guideopacity="1"
     inkscape:snap-smooth-nodes="true">
    <inkscape:grid
       type="xygrid"
       id="pixels"
       spacingx="1.5"
       spacingy="1.5"
       empspacing="2"
       empcolor="#404040"
       empopacity="0.25"
       color="#dadada"
       opacity="0.2"
       originy="0"
       originx="0" />
    <sodipodi:guide
       position="33,33"
       orientation="1,0"
       id="g3"
       inkscape:locked="false" />
    <sodipodi:guide
       position="3,3"
       orientation="0,1"
       id="g4"
       inkscape:locked="false" />
    <sodipodi:guide
       position="3,21"
       orientation="1,0"
       id="guide1016"
       inkscape:locked="false" />
  </sodipodi:namedview>
  <metadata
     id="metadata3728">
    <rdf:RDF>
      <cc:Work
         rdf:about="">
        <dc:title></dc:title>
        <dc:format>image/svg+xml</dc:format>
        <dc:type
           rdf:resource="http://purl.org/dc/dcmitype/StillImage" />
      </cc:Work>
    </rdf:RDF>
  </metadata>
  <path
     id="path207"
     d="m 8.5,9 1.5,1.5 c 0,3 3,4.5 6,4.5 m -1.5,3 c -4.5,0 -6,-4.5 -6,-9 h -3 v 6 h -3 C 4,21 7.96938700505,24.8417053892 12,24 M 31.5,13.5 h 3 c -0.5,6 -3,12 -9,13.5 M 21,15 c 4.5,-1.5 6,-6 6,-10.5 h 4.5 c 0.4218247575,6.3962273843 0,15 -6,19.5 M 21,24 V 7.5 h -3.5 c -0.5037149422,5.8989595539 -1.9554242184,9.9910036235 -4.5,12 l 2,4.5 m -3,3 v -3 h 13.5 v 7.5 M 19.5,30 V 28.5 H 9 v 3 h 19.5 v -3"
     inkscape:connector-curvature="0"
     sodipodi:nodetypes="ccccccccccccccccccccccccccccccc" />
</svg>
